<svg xmlns="http://www.w3.org/2000/svg" xmlns:xlink="http://www.w3.org/1999/xlink" viewBox="0 0 595.567 145.039"><defs><linearGradient id="a" x1="106.317" y1="25.501" x2="106.576" y2="102.585" gradientUnits="userSpaceOnUse"><stop offset="0.004" stop-color="#19004d"/><stop offset="0.091" stop-color="#2c1364" stop-opacity="0.865"/><stop offset="0.528" stop-color="#836acc" stop-opacity="0.241"/><stop offset="0.745" stop-color="#a58cf4" stop-opacity="0"/></linearGradient><linearGradient id="b" x1="67.169" y1="27.915" x2="67.414" y2="113.811" xlink:href="#a"/></defs><title>logoengFichier 1mdpi</title><g style="isolation:isolate"><path d="M28.98,116.874v24.4a3.763,3.763,0,0,0,5.327,3.422l76.2-34.826Z" style="fill:#356ede"/><path d="M28.98,116.874v24.4a3.763,3.763,0,0,0,5.327,3.422l76.2-34.826Z" style="fill:#356ede"/><path d="M101.01,127.991c-29.256.159-60.966-.324-76.782-1.447A23.983,23.983,0,0,1,2.106,105.178a390.851,390.851,0,0,1,.137-82.31A24.011,24.011,0,0,1,24.609,1.379C38.568.508,64.311.048,89.845,0A60.579,60.579,0,0,0,81.6,32.456c0,.188.007.375.014.562a53.192,53.192,0,0,1-6.838,28.73L67.96,73.626a5.414,5.414,0,0,0,4.4,8.106l12.13.677v7.753a1.369,1.369,0,0,0,1.375,1.368h27.009s-12.274,9.984-26.441,9.775a2.139,2.139,0,0,0-2.159,2.045C84,108.655,84.949,122.383,101.01,127.991Z" style="fill:#356ede"/><path d="M101.01,127.991c-29.256.159-60.966-.324-76.782-1.447A23.983,23.983,0,0,1,2.106,105.178a390.851,390.851,0,0,1,.137-82.31A24.011,24.011,0,0,1,24.609,1.379C38.568.508,64.311.048,89.845,0A60.579,60.579,0,0,0,81.6,32.456c0,.188.007.375.014.562a53.192,53.192,0,0,1-6.838,28.73L67.96,73.626a5.414,5.414,0,0,0,4.4,8.106l12.13.677v7.753a1.369,1.369,0,0,0,1.375,1.368h27.009s-12.274,9.984-26.441,9.775a2.139,2.139,0,0,0-2.159,2.045C84,108.655,84.949,122.383,101.01,127.991Z" style="fill:#356ede"/><path d="M176.338,104.264a24.005,24.005,0,0,1-22.2,22.338c-11.583.806-31.7,1.267-53.127,1.389C84.949,122.383,84,108.655,84.273,103.35a2.139,2.139,0,0,1,2.159-2.045c14.167.209,26.441-9.775,26.441-9.775-9.2.841-18.32,1.3-27.009,0a1.369,1.369,0,0,1-1.375-1.368V82.409l-12.13-.677a5.414,5.414,0,0,1-4.4-8.106l6.818-11.878a53.192,53.192,0,0,0,6.838-28.73c-.007-.187-.014-.374-.014-.562A60.579,60.579,0,0,1,89.845,0c25.44-.05,50.664.324,63.795,1.152a24.015,24.015,0,0,1,22.51,22.28A586.213,586.213,0,0,1,176.338,104.264Z" style="fill:#ff6ba9"/><g style="mix-blend-mode:multiply"><ellipse cx="106.397" cy="49.34" rx="6.318" ry="11.918" style="fill:url(#a)"/></g><ellipse cx="67.23" cy="49.34" rx="6.318" ry="11.918" style="fill:url(#b)"/><path d="M200.581,48.462l24.082-.058a4.176,4.176,0,0,1,2.813,1.875,7.11,7.11,0,0,1,1.142,3.4,7.458,7.458,0,0,1-.673,3.692,6.249,6.249,0,0,1-2.637,2.871l-10.723.176v5.332l8.613.117a3.759,3.759,0,0,1,2.461,2.109,6.6,6.6,0,0,1,.44,3.076,11.367,11.367,0,0,1-1.787,5.01l-9.727.41-.234,17.754a2.907,2.907,0,0,1-1.289,1.289,9.962,9.962,0,0,1-2.344.967,12.365,12.365,0,0,1-2.871.439,9.835,9.835,0,0,1-2.871-.292,6.261,6.261,0,0,1-2.344-1.143,3.64,3.64,0,0,1-1.289-2.2Z" style="fill:#ff6ba9"/><path d="M240.718,93.931a4.564,4.564,0,0,1-2.256,1.67,11.394,11.394,0,0,1-3.223.674,19.481,19.481,0,0,1-3.515-.088,23.647,23.647,0,0,1-3.252-.586,10.491,10.491,0,0,1-2.373-.879c-.607-.332-.889-.635-.85-.908L235.5,52.681a5.315,5.315,0,0,1,2.139-2.461,11,11,0,0,1,3.369-1.377,17.282,17.282,0,0,1,3.955-.439,20.526,20.526,0,0,1,3.9.351,12.358,12.358,0,0,1,3.165,1.026,3.6,3.6,0,0,1,1.757,1.553L266.441,94.4a14.523,14.523,0,0,1-3.985,1.758,13.119,13.119,0,0,1-3.6.41,14.456,14.456,0,0,1-3.4-.527q-1.669-.47-3.31-1l-2.52-17.636-7.148-.235ZM249.1,67.564a25.894,25.894,0,0,0-1.524-6.152q-.821-1.758-1.67-1.407t-1.64,2.461a35.237,35.237,0,0,0-1.436,5.332Z" style="fill:#ff6ba9"/><path d="M302.124,80.22a33.619,33.619,0,0,1-5.449,9.405,21.209,21.209,0,0,1-6.533,5.3,14.709,14.709,0,0,1-6.973,1.612,15.634,15.634,0,0,1-6.738-1.7,19.178,19.178,0,0,1-5.772-4.541,22.811,22.811,0,0,1-4.131-6.972,29.331,29.331,0,0,1-1.816-8.994,34.676,34.676,0,0,1,1.2-10.577,18.055,18.055,0,0,1,3.633-7.06,24.425,24.425,0,0,1,6.065-5.3,22.86,22.86,0,0,1,7.324-2.93,17.681,17.681,0,0,1,7.5-.029,13.834,13.834,0,0,1,6.474,3.428,15.912,15.912,0,0,1,4.278,7.441,4.006,4.006,0,0,1-.791,2.871,7.416,7.416,0,0,1-2.432,2.168,7.7,7.7,0,0,1-3.105.967,3.735,3.735,0,0,1-2.754-.732,13.435,13.435,0,0,0-3.75-3.633,6.875,6.875,0,0,0-3.428-1.055,5.466,5.466,0,0,0-3.018.908,11.575,11.575,0,0,0-2.548,2.256,14.3,14.3,0,0,0-1.934,2.959,15,15,0,0,0-1.143,3.076,11.737,11.737,0,0,0-.293,4.541,15.184,15.184,0,0,0,1.2,4.395,10.953,10.953,0,0,0,2.4,3.457,5.588,5.588,0,0,0,7.148.82,13.272,13.272,0,0,0,4.131-4.306,2.872,2.872,0,0,1,1.231-1.729,5.24,5.24,0,0,1,2.168-.791,8.222,8.222,0,0,1,2.578.059,8.532,8.532,0,0,1,2.519.849,5.946,5.946,0,0,1,1.934,1.582A3.84,3.84,0,0,1,302.124,80.22Z" style="fill:#ff6ba9"/><path d="M304,48.7l28.828-.352a3.671,3.671,0,0,1,1,2.022A9.413,9.413,0,0,1,334,53.531a8.37,8.37,0,0,1-.967,3.135,3.637,3.637,0,0,1-2.373,1.875l-15.586.234.586,6.035,9.961.293a2.155,2.155,0,0,1,1,1.377,9.219,9.219,0,0,1,.5,2.549,11.793,11.793,0,0,1-.146,2.754,3.988,3.988,0,0,1-.879,2.051l-10.957.351.234,9.082,16.7-.117a7.7,7.7,0,0,1,1.464,3.31,10.528,10.528,0,0,1,.059,3.311,10.809,10.809,0,0,1-.85,2.93,10.625,10.625,0,0,1-1.318,2.226L304,95.455Z" style="fill:#ff6ba9"/><path d="M561.284,61.119a14.659,14.659,0,0,1-.732-2.842A20.259,20.259,0,0,1,560.288,55a14.129,14.129,0,0,1,.352-3.194,7.746,7.746,0,0,1,1.055-2.578l31.875-.7a3.108,3.108,0,0,1,1.347,1.523,7,7,0,0,1,.645,2.9,11.852,11.852,0,0,1-.557,3.779,12.161,12.161,0,0,1-2.2,4.043h-9.434q0,1.816.059,4.453t.117,5.684q.057,3.047.146,6.269t.147,6.27q.057,3.047.117,5.684t.059,4.453A2.652,2.652,0,0,1,582.7,95.4a7.149,7.149,0,0,1-2.548.879,12.651,12.651,0,0,1-3.106.088,19.945,19.945,0,0,1-3.047-.5,10.751,10.751,0,0,1-2.4-.879,2.167,2.167,0,0,1-1.172-1.113l1.055-33.106Z" style="fill:#356ede"/><path d="M558.706,80.22a33.619,33.619,0,0,1-5.449,9.405,21.209,21.209,0,0,1-6.533,5.3,14.709,14.709,0,0,1-6.973,1.612,15.634,15.634,0,0,1-6.738-1.7,19.178,19.178,0,0,1-5.772-4.541,22.789,22.789,0,0,1-4.13-6.972,29.3,29.3,0,0,1-1.817-8.994,34.676,34.676,0,0,1,1.2-10.577,18.055,18.055,0,0,1,3.633-7.06,24.425,24.425,0,0,1,6.065-5.3,22.86,22.86,0,0,1,7.324-2.93,17.681,17.681,0,0,1,7.5-.029,13.834,13.834,0,0,1,6.474,3.428,15.912,15.912,0,0,1,4.278,7.441,4.006,4.006,0,0,1-.791,2.871,7.416,7.416,0,0,1-2.432,2.168,7.7,7.7,0,0,1-3.105.967,3.735,3.735,0,0,1-2.754-.732,13.435,13.435,0,0,0-3.75-3.633,6.875,6.875,0,0,0-3.428-1.055,5.466,5.466,0,0,0-3.018.908,11.575,11.575,0,0,0-2.548,2.256,14.3,14.3,0,0,0-1.934,2.959,15,15,0,0,0-1.143,3.076,11.737,11.737,0,0,0-.293,4.541,15.184,15.184,0,0,0,1.2,4.395,10.953,10.953,0,0,0,2.4,3.457,5.588,5.588,0,0,0,7.148.82,13.272,13.272,0,0,0,4.131-4.306,2.872,2.872,0,0,1,1.231-1.729,5.24,5.24,0,0,1,2.168-.791,8.222,8.222,0,0,1,2.578.059,8.532,8.532,0,0,1,2.519.849,5.946,5.946,0,0,1,1.934,1.582A3.84,3.84,0,0,1,558.706,80.22Z" style="fill:#356ede"/><path d="M491.851,48.7l28.828-.352a3.671,3.671,0,0,1,1,2.022,9.439,9.439,0,0,1,.176,3.164,8.388,8.388,0,0,1-.967,3.135,3.637,3.637,0,0,1-2.373,1.875l-15.586.234.586,6.035,9.961.293a2.159,2.159,0,0,1,1,1.377,9.293,9.293,0,0,1,.5,2.549,11.793,11.793,0,0,1-.146,2.754,4,4,0,0,1-.879,2.051l-10.957.351.234,9.082,16.7-.117a7.707,7.707,0,0,1,1.465,3.31,10.558,10.558,0,0,1,.059,3.311,10.881,10.881,0,0,1-.85,2.93,10.668,10.668,0,0,1-1.318,2.226l-27.422.528Z" style="fill:#356ede"/><path d="M370.855,80.22a33.619,33.619,0,0,1-5.45,9.405,21.209,21.209,0,0,1-6.533,5.3,14.706,14.706,0,0,1-6.972,1.612,15.635,15.635,0,0,1-6.739-1.7A19.174,19.174,0,0,1,339.39,90.3a22.771,22.771,0,0,1-4.131-6.972,29.3,29.3,0,0,1-1.816-8.994,34.645,34.645,0,0,1,1.2-10.577,18.055,18.055,0,0,1,3.633-7.06,24.421,24.421,0,0,1,6.064-5.3,22.87,22.87,0,0,1,7.324-2.93,17.681,17.681,0,0,1,7.5-.029,13.832,13.832,0,0,1,6.475,3.428,15.9,15.9,0,0,1,4.277,7.441,4,4,0,0,1-.791,2.871,7.413,7.413,0,0,1-2.431,2.168,7.7,7.7,0,0,1-3.106.967,3.735,3.735,0,0,1-2.754-.732,13.435,13.435,0,0,0-3.75-3.633,6.872,6.872,0,0,0-3.428-1.055,5.46,5.46,0,0,0-3.017.908,11.58,11.58,0,0,0-2.549,2.256,14.338,14.338,0,0,0-1.934,2.959,14.933,14.933,0,0,0-1.142,3.076,11.718,11.718,0,0,0-.293,4.541,15.184,15.184,0,0,0,1.2,4.395,10.953,10.953,0,0,0,2.4,3.457,5.59,5.59,0,0,0,7.149.82,13.293,13.293,0,0,0,4.131-4.306,2.866,2.866,0,0,1,1.23-1.729A5.245,5.245,0,0,1,363,75.474a8.221,8.221,0,0,1,2.578.059,8.528,8.528,0,0,1,2.52.849,5.942,5.942,0,0,1,1.933,1.582A3.841,3.841,0,0,1,370.855,80.22Z" style="fill:#356ede"/><path d="M373.081,74.478a32.326,32.326,0,0,1,1.7-10.723,26.67,26.67,0,0,1,4.629-8.378,20.866,20.866,0,0,1,6.856-5.45,18.708,18.708,0,0,1,8.379-1.933,12.723,12.723,0,0,1,7.148,1.963,15.406,15.406,0,0,1,4.893,5.244,23.442,23.442,0,0,1,2.695,7.529,33.829,33.829,0,0,1,.469,8.672,37.016,37.016,0,0,1-1.729,8.76,28.459,28.459,0,0,1-3.9,7.822,22.041,22.041,0,0,1-6.035,5.771,17.147,17.147,0,0,1-8.116,2.637,13.857,13.857,0,0,1-6.855-1.728,17.24,17.24,0,0,1-5.361-4.688,22.558,22.558,0,0,1-3.516-6.943A28.19,28.19,0,0,1,373.081,74.478Zm16.465,9.434a4.1,4.1,0,0,0,3.311-1.494,11.545,11.545,0,0,0,2.2-3.926,23.261,23.261,0,0,0,1.113-5.215,28.922,28.922,0,0,0,.088-5.332,14.2,14.2,0,0,0-.967-4.307,3.58,3.58,0,0,0-1.992-2.226,2.768,2.768,0,0,0-2.725,1.23,14.7,14.7,0,0,0-2.226,3.955,29.74,29.74,0,0,0-1.963,10.869,12.314,12.314,0,0,0,.82,4.424A2.873,2.873,0,0,0,389.546,83.912Z" style="fill:#356ede"/><path d="M411.519,50.865a7.52,7.52,0,0,1,2.578-1.319,17.561,17.561,0,0,1,3.6-.761,19.089,19.089,0,0,1,3.809-.03,8.764,8.764,0,0,1,3.252.879l10.078,24.785L434.077,49.4a8.221,8.221,0,0,1,3.516-1.231,24.577,24.577,0,0,1,4.658-.263,25.025,25.025,0,0,1,4.4.527,6.183,6.183,0,0,1,2.724,1.084L448.9,93.99a6.014,6.014,0,0,1-3.487,2.314,15.338,15.338,0,0,1-4.394.469,14.325,14.325,0,0,1-3.955-.674,4.464,4.464,0,0,1-2.11-1.113L426.7,77.408l-.411,18.867a9.493,9.493,0,0,1-3.193.732,32.549,32.549,0,0,1-4.365.118,27.2,27.2,0,0,1-4.16-.469,5.236,5.236,0,0,1-2.579-1.026Z" style="fill:#356ede"/><path d="M451.6,50.865a7.52,7.52,0,0,1,2.578-1.319,17.561,17.561,0,0,1,3.6-.761,19.089,19.089,0,0,1,3.809-.03,8.759,8.759,0,0,1,3.252.879l10.078,24.785L474.155,49.4a8.221,8.221,0,0,1,3.516-1.231,24.582,24.582,0,0,1,4.658-.263,25.025,25.025,0,0,1,4.395.527,6.183,6.183,0,0,1,2.724,1.084L488.98,93.99a6.014,6.014,0,0,1-3.487,2.314,15.338,15.338,0,0,1-4.394.469,14.332,14.332,0,0,1-3.955-.674,4.464,4.464,0,0,1-2.11-1.113l-8.261-17.578-.411,18.867a9.493,9.493,0,0,1-3.193.732,32.549,32.549,0,0,1-4.365.118,27.219,27.219,0,0,1-4.16-.469,5.227,5.227,0,0,1-2.578-1.026Z" style="fill:#356ede"/></g></svg>